#!OML:ASF F:\VICON\USERDATA\INSTALL\rory3\rory3.ASF
:FULLY-SPECIFIED
:DEGREES
3032
root 0.590966 16.211 -0.241134 4.3714 -26.3636 -1.25451
lowerback 10.4154 -4.01121 -9.83045
upperback -1.61753 -6.84967 -2.92257
thorax -6.80074 -3.02334 3.43769
lowerneck 13.4105 -26.5713 -20.3876
upperneck -9.49736 -38.7486 30.7123
head 5.15855 -20.3987 8.59745
rclavicle -9.46215e-014 3.97569e-014
rhumerus -6.97825 39.9782 -86.6038
rradius 108.979
rwrist 15.089
rhand 28.2447 5.85497
rfingers 7.12502
rthumb 52.1221 -14.1778
lclavicle -9.46215e-014 3.97569e-014
lhumerus -14.8379 -21.1626 66.16
lradius 119.74
lwrist 5.51175
lhand 5.54134 34.5078
lfingers 7.12502
lthumb 30.8862 61.9309
rfemur -11.774 19.8847 14.1094
rtibia 14.6723
rfoot -5.71263 3.06867
rtoes -5.82957
lfemur 7.5739 16.716 -16.1707
ltibia 7.95139e-015
lfoot -6.76604 4.96518
ltoes 0.347174
3033
root 0.587699 16.2112 -0.243781 4.36964 -26.2272 -1.30053
lowerback 10.3813 -3.99975 -9.72676
upperback -1.57594 -6.8146 -2.9472
thorax -6.75459 -3.01471 3.34634
lowerneck 13.388 -26.5684 -20.3851
upperneck -9.40562 -38.7622 30.7201
head 5.19458 -20.4013 8.58611
rclavicle -3.42904e-014 3.18055e-015
rhumerus -7.00689 39.8339 -86.7287
rradius 108.967
rwrist 15.1997
rhand 28.3395 5.92598
rfingers 7.12502
rthumb 52.208 -14.0553
lclavicle -3.42904e-014 3.18055e-015
lhumerus -14.8439 -21.1908 66.0921
lradius 119.746
lwrist 5.49837
lhand 5.47332 34.5258
lfingers 7.12502
lthumb 30.8213 61.9612
rfemur -11.7049 19.7058 14.2391
rtibia 14.6435
rfoot -5.76289 2.98646
rtoes -7.68358
lfemur 7.58148 16.6216 -16.0921
ltibia -4.77083e-015
lfoot -6.74061 4.89539
ltoes 0.458045
3034
root 0.584181 16.2097 -0.247393 4.38238 -26.0807 -1.34498
lowerback 10.3494 -3.96177 -9.67128
upperback -1.5219 -6.74878 -2.96088
thorax -6.69333 -2.98995 3.28817
lowerneck 13.2825 -26.6275 -20.1951
upperneck -9.3877 -38.7916 30.6442
head 5.16719 -20.4097 8.53856
rclavicle 1.37161e-014 -2.70347e-014
rhumerus -6.99236 39.6467 -86.7782
rradius 109.013
rwrist 15.2172
rhand 28.4887 5.70996
rfingers 7.12502
rthumb 52.3432 -14.1896
lclavicle 1.37161e-014 -2.70347e-014
lhumerus -14.6052 -21.0187 65.9514
lradius 119.701
lwrist 5.28536
lhand 6.26232 34.2516
lfingers 7.12502
lthumb 31.5732 61.5422
rfemur -11.6056 19.7544 14.2888
rtibia 14.5438
rfoot -5.75862 2.8405
rtoes -7.16915
lfemur 7.54832 16.5188 -16.0259
ltibia 1.74931e-014
lfoot -6.70223 4.84795
ltoes 0.16537
3035
root 0.579892 16.2094 -0.252923 4.46048 -25.8655 -1.53102
lowerback 10.3905 -3.89203 -9.51129
upperback -1.48826 -6.63475 -2.92356
thorax -6.70581 -2.93976 3.22849
lowerneck 13.2289 -26.7077 -20.0221
upperneck -9.42861 -38.8518 30.6124
head 5.13509 -20.4398 8.50338
rclavicle 5.09883e-014 1.43125e-014
rhumerus -7.04448 39.326 -86.7934
rradius 109.062
rwrist 15.0816
rhand 28.7376 5.62045
rfingers 7.12502
rthumb 52.5685 -14.1413
lclavicle 5.09883e-014 1.43125e-014
lhumerus -14.2616 -20.9373 65.8235
lradius 119.761
lwrist 5.12082
lhand 7.22743 34.1862
lfingers 7.12502
lthumb 32.4922 61.2922
rfemur -11.4734 19.9277 14.4611
rtibia 14.3834
rfoot -5.65172 2.59175
rtoes -5.59875
lfemur 7.48277 16.3572 -15.813
ltibia 4.77083e-015
lfoot -6.64424 4.82781
ltoes -0.192348
3036
root 0.575456 16.2102 -0.256952 4.52791 -25.6321 -1.71834
lowerback 10.405 -3.85646 -9.31553
upperback -1.46517 -6.55857 -2.88005
thorax -6.71261 -2.90941 3.1587
lowerneck 13.1975 -26.7044 -19.9812
upperneck -9.38667 -38.8349 30.5627
head 5.12889 -20.427 8.48954
rclavicle -2.127e-014 1.90833e-014
rhumerus -7.14171 39.0722 -86.9045
rradius 109.069
rwrist 15.0048
rhand 29.0338 5.70032
rfingers 7.12502
rthumb 52.8362 -13.8952
lclavicle -2.127e-014 1.90833e-014
lhumerus -14.1586 -21.0494 65.7696
lradius 119.935
lwrist 5.30792
lhand 7.17893 34.5006
lfingers 7.12502
lthumb 32.446 61.6161
rfemur -11.323 19.9378 14.6745
rtibia 14.227
rfoot -5.60995 2.3853
rtoes -4.8716
lfemur 7.43866 16.1768 -15.5922
ltibia -1.59028e-014
lfoot -6.57743 4.79058
ltoes -0.110306
